# xmcd
#
# Track frame offsets: 
#        150
#        17522
#        39506
#        54732
#        74664
#        91242
#        109393
#        120789
#        130475
#        152486
#        174205
#        190950
#        207685
#
# Disc length: 3034 seconds
#
# Revision: 0
# Processed by: cddbd v1.5.2PL0 Copyright (c) Steve Scherf et al.
# Submitted via: ExactAudioCopyFreeDBPlugin 1.0
#
DISCID=b20bd80d
DTITLE=Mac Arnold and Plate Full O’ Blues - Give It Away
DYEAR=2015
DGENRE=Blues
TTITLE0=Nickel and Dime
TTITLE1=Don’t Burn My Cornbread
TTITLE2=Uncle Dewitt’s Cafe
TTITLE3=Damned If I Do
TTITLE4=Give It Away
TTITLE5=Fool Hearted Lover
TTITLE6=Nitty Gritty
TTITLE7=How I Need You
TTITLE8=Train Smoke
TTITLE9=Relationship Man
TTITLE10=I'll Take Care of You
TTITLE11=Amos Moses
TTITLE12=Memories
EXTD=
EXTT0=
EXTT1=
EXTT2=
EXTT3=
EXTT4=
EXTT5=
EXTT6=
EXTT7=
EXTT8=
EXTT9=
EXTT10=
EXTT11=
EXTT12=
PLAYORDER=
